<?xml version="1.0" encoding="UTF-8"?>
<svg width="1200pt" height="1200pt" version="1.1" viewBox="0 0 1200 1200" xmlns="http://www.w3.org/2000/svg">
 <path d="m836.21 603.72 32.449-32.449c109.99-110.02 32.352-299.5-124.15-299.5-82.031 0-121.32 48.527-156.5 83.711-34.824-34.824-74.281-83.832-156.48-83.832-155.02 0-234.84 188.95-124.15 299.62l32.449 32.449c-34.871 34.848-83.953 74.398-83.953 156.57 0 46.703 18.289 90.719 51.504 123.94 33.145 33.145 77.23 51.406 124.15 51.406s91.008-18.266 124.15-51.406l32.328-32.328 32.328 32.328c109.13 109.13 299.71 33.07 299.71-124.05 0-82.367-49.391-121.99-83.832-156.46zm-52.465 195.65c-20.832 20.832-57.672 20.809-78.527 0l-32.305-32.328 78.504-78.312c24.027 24 77.664 65.305 32.328 110.64zm-407.61-39.168c0-28.465 15.863-38.879 48.648-71.496l78.336 78.336-32.305 32.328c-32.953 32.953-94.68 11.977-94.68-39.168zm94.68-352.13 32.305 32.328-78.551 78.551-32.281-32.281c-52.082-52.578 27.336-129.77 78.527-78.598zm312.93 78.555-32.352 32.305c-15.434-15.434-64.848-64.848-78.504-78.527l32.328-32.328c21-20.977 57.574-20.977 78.504-0.023438 21.48 21.668 21.48 56.949 0.023438 78.574zm-195.74 195.55-78.527-78.336 78.527-78.527 78.48 78.48zm156.5-386.38c134.9 0 202.34 163.34 107.16 258.53l-195.72 195.72-50.93-50.953 78.527-78.312c5.6406-5.6641 10.465-10.441 16.992-16.969l-0.023437-0.023438c71.902-71.93 49.488-49.488 100.27-100.27 30.695-31.008 30.695-81.434-0.046875-112.46-30.07-30.098-82.465-30.07-112.49 0l-32.328 32.328-50.953-50.953c35.16-35.105 68.23-76.625 139.54-76.625zm-420.17 258.53c-95.449-95.449-26.734-258.65 107.18-258.65 80.039 0 96.742 34.031 302.93 240.21l-50.977 50.902c-210.79-210.74-208.18-219-251.95-219-70.633 0-105.79 85.824-56.23 135.82l32.305 32.328-50.832 50.832zm107.18 357.31c-84.312 0-151.68-68.398-151.68-151.34 0-71.184 41.855-104.54 76.922-139.61l0.12109 0.12109c93.816-94.152 56.594-56.879 163.18-163.46l50.953 50.953-78.551 78.551c-11.473 11.52-7.6562 7.7031-16.969 16.992-105.41 105.41-123.36 114.27-123.36 156.34 0 44.711 36.145 79.465 79.391 79.465 40.199 0 57.719-24.77 88.559-55.633l50.953 50.953c-35.043 35.039-68.141 76.68-139.52 76.68zm205.78-44.352-195.53-195.53 50.734-50.93 195.74 195.5c49.656 49.656 135.6 15 135.6-56.137 0-40.273-24.527-57.504-55.465-88.441l50.953-50.953c35.039 35.039 76.68 68.16 76.68 139.39 0.023437 135.65-164.52 201.25-258.72 107.09z"/>
</svg>
