<svg width="12" height="12" viewBox="0 0 12 12" fill="none" xmlns="http://www.w3.org/2000/svg">
<path d="M0.117188 3.1582C0 0.990234 1.55273 0 3.19336 0.0878906L8.53125 0.375C8.71875 0.386719 8.87109 0.527344 8.87109 0.714844C8.87109 0.896484 8.71875 1.04297 8.53125 1.04883L3.19336 1.19531C1.85742 1.23047 1.25977 1.81641 1.22461 3.1582L1.08398 8.50195C1.07812 8.68945 0.931641 8.8418 0.744141 8.8418C0.5625 8.8418 0.416016 8.68945 0.404297 8.50195L0.117188 3.1582ZM11.0977 7.98047C11.2148 10.1484 9.66211 11.1387 8.02734 11.0508L2.68359 10.7637C2.49609 10.752 2.34375 10.6113 2.34375 10.4238C2.34375 10.2422 2.49609 10.0957 2.68359 10.0898L8.02734 9.94336C9.36328 9.9082 9.95508 9.32227 9.99023 7.98047L10.1309 2.63672C10.1367 2.44922 10.2891 2.29688 10.4707 2.29688C10.6582 2.29688 10.7988 2.44922 10.8105 2.63672L11.0977 7.98047Z" fill="white"/>
</svg>
