<svg width="12" height="12" viewBox="0 0 12 12" fill="none" xmlns="http://www.w3.org/2000/svg">
<path d="M0.0410156 3.10547C0.0136719 2.5625 0.0800781 2.09375 0.240234 1.69922C0.400391 1.30078 0.626953 0.974609 0.919922 0.720703C1.2168 0.466797 1.55469 0.283203 1.93359 0.169922C2.3125 0.0566406 2.70703 0.0117188 3.11719 0.0351562L8.45508 0.322266C8.54883 0.326172 8.62891 0.361328 8.69531 0.427734C8.76172 0.490234 8.79492 0.568359 8.79492 0.662109C8.79492 0.751953 8.76172 0.830078 8.69531 0.896484C8.62891 0.962891 8.54883 0.996094 8.45508 0.996094L3.11719 1.14258C2.67188 1.1543 2.30664 1.23047 2.02148 1.37109C1.73633 1.51172 1.52148 1.72461 1.37695 2.00977C1.23633 2.29492 1.16016 2.66016 1.14844 3.10547L1.00781 8.44922C1.00391 8.54297 0.96875 8.62305 0.902344 8.68945C0.839844 8.75586 0.761719 8.78906 0.667969 8.78906C0.574219 8.78906 0.496094 8.75586 0.433594 8.68945C0.371094 8.62305 0.335938 8.54297 0.328125 8.44922L0.0410156 3.10547ZM11.0215 7.92773C11.0527 8.4707 10.9883 8.94141 10.8281 9.33984C10.668 9.73438 10.4395 10.0586 10.1426 10.3125C9.84961 10.5664 9.51172 10.75 9.12891 10.8633C8.75 10.9766 8.35742 11.0215 7.95117 10.998L2.60742 10.7109C2.51367 10.707 2.43359 10.6719 2.36719 10.6055C2.30078 10.543 2.26758 10.4648 2.26758 10.3711C2.26758 10.2812 2.30078 10.2031 2.36719 10.1367C2.43359 10.0703 2.51367 10.0371 2.60742 10.0371L7.95117 9.89062C8.39648 9.87891 8.76172 9.80273 9.04688 9.66211C9.33203 9.52148 9.54492 9.30859 9.68555 9.02344C9.82617 8.73828 9.90234 8.37305 9.91406 7.92773L10.0547 2.58398C10.0586 2.49023 10.0918 2.41016 10.1543 2.34375C10.2207 2.27734 10.3008 2.24414 10.3945 2.24414C10.4883 2.24414 10.5664 2.27734 10.6289 2.34375C10.6914 2.41016 10.7266 2.49023 10.7344 2.58398L11.0215 7.92773Z" fill="white"/>
</svg>
